<?xml version="1.0" ?><svg enable-background="new 45.6 168.9 504 504" id="Layer_1" version="1.1" viewBox="45.6 168.9 504 504" xml:space="preserve" xmlns="http://www.w3.org/2000/svg" xmlns:xlink="http://www.w3.org/1999/xlink"><path d="M482.5,328.5H112.8v277.2c0,25.4,20.8,46.2,46.2,46.2h277.2c25.4,0,46.2-20.8,46.2-46.2V328.5z" fill="#616161"/><path d="M436.3,189.9H159c-25.4,0-46.2,20.8-46.2,46.2v104h369.7v-104C482.5,210.7,461.7,189.9,436.3,189.9z" fill="#424242"/><path d="M436.3,305.4H159c-6.9,0-11.6-4.6-11.6-11.6v-57.8c0-6.9,4.6-11.6,11.6-11.6h277.2c6.9,0,11.6,4.6,11.6,11.6  v57.8C447.8,300.8,443.2,305.4,436.3,305.4z" fill="#9CCC65"/><g><rect fill="#33691E" height="23.1" width="23.1" x="401.6" y="259.2"/><rect fill="#33691E" height="23.1" width="23.1" x="355.4" y="259.2"/></g><path d="M436.3,409.4h-34.7c-6.9,0-11.6-4.6-11.6-11.6v-23.1c0-6.9,4.6-11.6,11.6-11.6h34.7  c6.9,0,11.6,4.6,11.6,11.6v23.1C447.8,404.8,443.2,409.4,436.3,409.4z" fill="#FF5252"/><g><path d="M193.7,409.4H159c-6.9,0-11.6-4.6-11.6-11.6v-23.1c0-6.9,4.6-11.6,11.6-11.6h34.7c6.9,0,11.6,4.6,11.6,11.6   v23.1C205.2,404.8,200.6,409.4,193.7,409.4z" fill="#E0E0E0"/><path d="M274.5,409.4h-34.7c-6.9,0-11.6-4.6-11.6-11.6v-23.1c0-6.9,4.6-11.6,11.6-11.6h34.7   c6.9,0,11.6,4.6,11.6,11.6v23.1C286.1,404.8,281.5,409.4,274.5,409.4z" fill="#E0E0E0"/><path d="M355.4,409.4h-34.7c-6.9,0-11.6-4.6-11.6-11.6v-23.1c0-6.9,4.6-11.6,11.6-11.6h34.7   c6.9,0,11.6,4.6,11.6,11.6v23.1C367,404.8,362.3,409.4,355.4,409.4z" fill="#E0E0E0"/><path d="M193.7,478.7H159c-6.9,0-11.6-4.6-11.6-11.6V444c0-6.9,4.6-11.6,11.6-11.6h34.7c6.9,0,11.6,4.6,11.6,11.6   v23.1C205.2,474.1,200.6,478.7,193.7,478.7z" fill="#E0E0E0"/><path d="M274.5,478.7h-34.7c-6.9,0-11.6-4.6-11.6-11.6V444c0-6.9,4.6-11.6,11.6-11.6h34.7c6.9,0,11.6,4.6,11.6,11.6   v23.1C286.1,474.1,281.5,478.7,274.5,478.7z" fill="#E0E0E0"/><path d="M355.4,478.7h-34.7c-6.9,0-11.6-4.6-11.6-11.6V444c0-6.9,4.6-11.6,11.6-11.6h34.7c6.9,0,11.6,4.6,11.6,11.6   v23.1C367,474.1,362.3,478.7,355.4,478.7z" fill="#E0E0E0"/><path d="M193.7,548H159c-6.9,0-11.6-4.6-11.6-11.6v-23.1c0-6.9,4.6-11.6,11.6-11.6h34.7c6.9,0,11.6,4.6,11.6,11.6   v23.1C205.2,543.4,200.6,548,193.7,548z" fill="#E0E0E0"/><path d="M274.5,548h-34.7c-6.9,0-11.6-4.6-11.6-11.6v-23.1c0-6.9,4.6-11.6,11.6-11.6h34.7c6.9,0,11.6,4.6,11.6,11.6   v23.1C286.1,543.4,281.5,548,274.5,548z" fill="#E0E0E0"/><path d="M355.4,548h-34.7c-6.9,0-11.6-4.6-11.6-11.6v-23.1c0-6.9,4.6-11.6,11.6-11.6h34.7c6.9,0,11.6,4.6,11.6,11.6   v23.1C367,543.4,362.3,548,355.4,548z" fill="#E0E0E0"/><path d="M193.7,617.3H159c-6.9,0-11.6-4.6-11.6-11.6v-23.1c0-6.9,4.6-11.6,11.6-11.6h34.7c6.9,0,11.6,4.6,11.6,11.6   v23.1C205.2,612.7,200.6,617.3,193.7,617.3z" fill="#E0E0E0"/><path d="M274.5,617.3h-34.7c-6.9,0-11.6-4.6-11.6-11.6v-23.1c0-6.9,4.6-11.6,11.6-11.6h34.7   c6.9,0,11.6,4.6,11.6,11.6v23.1C286.1,612.7,281.5,617.3,274.5,617.3z" fill="#E0E0E0"/><path d="M355.4,617.3h-34.7c-6.9,0-11.6-4.6-11.6-11.6v-23.1c0-6.9,4.6-11.6,11.6-11.6h34.7   c6.9,0,11.6,4.6,11.6,11.6v23.1C367,612.7,362.3,617.3,355.4,617.3z" fill="#E0E0E0"/></g><g><path d="M436.3,478.7h-34.7c-6.9,0-11.6-4.6-11.6-11.6V444c0-6.9,4.6-11.6,11.6-11.6h34.7c6.9,0,11.6,4.6,11.6,11.6   v23.1C447.8,474.1,443.2,478.7,436.3,478.7z" fill="#BDBDBD"/><path d="M436.3,548h-34.7c-6.9,0-11.6-4.6-11.6-11.6v-23.1c0-6.9,4.6-11.6,11.6-11.6h34.7c6.9,0,11.6,4.6,11.6,11.6   v23.1C447.8,543.4,443.2,548,436.3,548z" fill="#BDBDBD"/><path d="M436.3,617.3h-34.7c-6.9,0-11.6-4.6-11.6-11.6v-23.1c0-6.9,4.6-11.6,11.6-11.6h34.7   c6.9,0,11.6,4.6,11.6,11.6v23.1C447.8,612.7,443.2,617.3,436.3,617.3z" fill="#BDBDBD"/></g></svg>