<?xml version="1.0" ?><svg enable-background="new 45.6 168.9 504 504" id="Layer_1" version="1.1" viewBox="45.6 168.9 504 504" xml:space="preserve" xmlns="http://www.w3.org/2000/svg" xmlns:xlink="http://www.w3.org/1999/xlink"><g><path d="M458.7,294.4c-38,0-69-10.4-69-23c0,4.6,0,18.4,0,23c0,12.7,31.1,23,69,23s69-10.4,69-23c0-4.6,0-18.4,0-23   C527.7,284.1,496.6,294.4,458.7,294.4z" fill="#FFA000"/><path d="M458.7,259.9c-38,0-69-10.4-69-23c0,4.6,0,18.4,0,23c0,12.7,31.1,23,69,23s69-10.4,69-23c0-4.6,0-18.4,0-23   C527.7,249.6,496.6,259.9,458.7,259.9z" fill="#FFA000"/><path d="M458.7,328.9c-38,0-69-10.4-69-23c0,4.6,0,18.4,0,23c0,12.7,31.1,23,69,23s69-10.4,69-23c0-4.6,0-18.4,0-23   C527.7,318.6,496.6,328.9,458.7,328.9z" fill="#FFA000"/><path d="M458.7,363.4c-38,0-69-10.4-69-23c0,4.6,0,18.4,0,23c0,12.7,31.1,23,69,23s69-10.4,69-23c0-4.6,0-18.4,0-23   C527.7,353.1,496.6,363.4,458.7,363.4z" fill="#FFA000"/><path d="M458.7,397.9c-38,0-69-10.4-69-23c0,4.6,0,18.4,0,23c0,12.7,31.1,23,69,23s69-10.4,69-23c0-4.6,0-18.4,0-23   C527.7,387.6,496.6,397.9,458.7,397.9z" fill="#FFA000"/><path d="M458.7,432.4c-38,0-69-10.4-69-23c0,4.6,0,18.4,0,23c0,12.7,31.1,23,69,23s69-10.4,69-23c0-4.6,0-18.4,0-23   C527.7,422.1,496.6,432.4,458.7,432.4z" fill="#FFA000"/><path d="M458.7,467c-38,0-69-10.4-69-23c0,4.6,0,18.4,0,23c0,12.7,31.1,23,69,23s69-10.4,69-23c0-4.6,0-18.4,0-23   C527.7,456.6,496.6,467,458.7,467z" fill="#FFA000"/><path d="M458.7,501.5c-38,0-69-10.4-69-23c0,4.6,0,18.4,0,23c0,12.7,31.1,23,69,23s69-10.4,69-23c0-4.6,0-18.4,0-23   C527.7,491.1,496.6,501.5,458.7,501.5z" fill="#FFA000"/><path d="M458.7,536c-38,0-69-10.4-69-23c0,4.6,0,18.4,0,23c0,12.7,31.1,23,69,23s69-10.4,69-23c0-4.6,0-18.4,0-23   C527.7,525.6,496.6,536,458.7,536z" fill="#FFA000"/><path d="M458.7,570.5c-38,0-69-10.4-69-23c0,4.6,0,18.4,0,23c0,12.7,31.1,23,69,23s69-10.4,69-23c0-4.6,0-18.4,0-23   C527.7,560.1,496.6,570.5,458.7,570.5z" fill="#FFA000"/><path d="M458.7,605c-38,0-69-10.4-69-23c0,4.6,0,18.4,0,23c0,12.7,31.1,23,69,23s69-10.4,69-23c0-4.6,0-18.4,0-23   C527.7,594.6,496.6,605,458.7,605z" fill="#FFA000"/></g><g><ellipse cx="458.7" cy="236.9" fill="#FFC107" rx="69" ry="23"/><path d="M458.7,282.9c-32.2,0-58.7-6.9-66.7-17.3c-1.2,2.3-2.3,3.5-2.3,5.8c0,12.7,31.1,23,69,23s69-10.4,69-23   c0-2.3-1.2-3.5-2.3-5.8C517.3,276,490.9,282.9,458.7,282.9z" fill="#FFC107"/><path d="M458.7,317.4c-32.2,0-58.7-6.9-66.7-17.3c-1.2,2.3-2.3,3.5-2.3,5.8c0,12.7,31.1,23,69,23s69-10.4,69-23   c0-2.3-1.2-3.5-2.3-5.8C517.3,310.5,490.9,317.4,458.7,317.4z" fill="#FFC107"/><path d="M458.7,351.9c-32.2,0-58.7-6.9-66.7-17.3c-1.2,2.3-2.3,3.5-2.3,5.8c0,12.7,31.1,23,69,23s69-10.4,69-23   c0-2.3-1.2-3.5-2.3-5.8C517.3,345,490.9,351.9,458.7,351.9z" fill="#FFC107"/><path d="M458.7,386.4c-32.2,0-58.7-6.9-66.7-17.3c-1.2,2.3-2.3,3.5-2.3,5.8c0,12.7,31.1,23,69,23s69-10.4,69-23   c0-2.3-1.2-3.5-2.3-5.8C517.3,379.5,490.9,386.4,458.7,386.4z" fill="#FFC107"/><path d="M458.7,420.9c-32.2,0-58.7-6.9-66.7-17.3c-1.2,2.3-2.3,3.5-2.3,5.8c0,12.7,31.1,23,69,23s69-10.4,69-23   c0-2.3-1.2-3.5-2.3-5.8C517.3,414,490.9,420.9,458.7,420.9z" fill="#FFC107"/><path d="M458.7,455.5c-32.2,0-58.7-6.9-66.7-17.3c-1.2,2.3-2.3,3.5-2.3,5.8c0,12.7,31.1,23,69,23s69-10.4,69-23   c0-2.3-1.2-3.5-2.3-5.8C517.3,448.5,490.9,455.5,458.7,455.5z" fill="#FFC107"/><path d="M458.7,490c-32.2,0-58.7-6.9-66.7-17.3c-1.2,2.3-2.3,3.5-2.3,5.8c0,12.7,31.1,23,69,23s69-10.4,69-23   c0-2.3-1.2-3.5-2.3-5.8C517.3,483.1,490.9,490,458.7,490z" fill="#FFC107"/><path d="M458.7,524.5c-32.2,0-58.7-6.9-66.7-17.3c-1.2,2.3-2.3,3.5-2.3,5.8c0,12.7,31.1,23,69,23s69-10.4,69-23   c0-2.3-1.2-3.5-2.3-5.8C517.3,517.6,490.9,524.5,458.7,524.5z" fill="#FFC107"/><path d="M458.7,559c-32.2,0-58.7-6.9-66.7-17.3c-1.2,2.3-2.3,3.5-2.3,5.8c0,12.7,31.1,23,69,23s69-10.4,69-23   c0-2.3-1.2-3.5-2.3-5.8C517.3,552.1,490.9,559,458.7,559z" fill="#FFC107"/><path d="M458.7,593.5c-32.2,0-58.7-6.9-66.7-17.3c-1.2,2.3-2.3,3.5-2.3,5.8c0,12.7,31.1,23,69,23s69-10.4,69-23   c0-2.3-1.2-3.5-2.3-5.8C517.3,586.6,490.9,593.5,458.7,593.5z" fill="#FFC107"/></g><g><path d="M136.6,363.4c-38,0-69-10.4-69-23c0,4.6,0,18.4,0,23c0,12.7,31.1,23,69,23s69-10.4,69-23c0-4.6,0-18.4,0-23   C205.6,353.1,174.6,363.4,136.6,363.4z" fill="#FFA000"/><path d="M136.6,328.9c-38,0-69-10.4-69-23c0,4.6,0,18.4,0,23c0,12.7,31.1,23,69,23s69-10.4,69-23c0-4.6,0-18.4,0-23   C205.6,318.6,174.6,328.9,136.6,328.9z" fill="#FFA000"/><path d="M136.6,397.9c-38,0-69-10.4-69-23c0,4.6,0,18.4,0,23c0,12.7,31.1,23,69,23s69-10.4,69-23c0-4.6,0-18.4,0-23   C205.6,387.6,174.6,397.9,136.6,397.9z" fill="#FFA000"/><path d="M136.6,432.4c-38,0-69-10.4-69-23c0,4.6,0,18.4,0,23c0,12.7,31.1,23,69,23s69-10.4,69-23c0-4.6,0-18.4,0-23   C205.6,422.1,174.6,432.4,136.6,432.4z" fill="#FFA000"/><path d="M136.6,467c-38,0-69-10.4-69-23c0,4.6,0,18.4,0,23c0,12.7,31.1,23,69,23s69-10.4,69-23c0-4.6,0-18.4,0-23   C205.6,456.6,174.6,467,136.6,467z" fill="#FFA000"/><path d="M136.6,501.5c-38,0-69-10.4-69-23c0,4.6,0,18.4,0,23c0,12.7,31.1,23,69,23s69-10.4,69-23c0-4.6,0-18.4,0-23   C205.6,491.1,174.6,501.5,136.6,501.5z" fill="#FFA000"/><path d="M136.6,536c-38,0-69-10.4-69-23c0,4.6,0,18.4,0,23c0,12.7,31.1,23,69,23s69-10.4,69-23c0-4.6,0-18.4,0-23   C205.6,525.6,174.6,536,136.6,536z" fill="#FFA000"/><path d="M136.6,570.5c-38,0-69-10.4-69-23c0,4.6,0,18.4,0,23c0,12.7,31.1,23,69,23s69-10.4,69-23c0-4.6,0-18.4,0-23   C205.6,560.1,174.6,570.5,136.6,570.5z" fill="#FFA000"/><path d="M136.6,605c-38,0-69-10.4-69-23c0,4.6,0,18.4,0,23c0,12.7,31.1,23,69,23s69-10.4,69-23c0-4.6,0-18.4,0-23   C205.6,594.6,174.6,605,136.6,605z" fill="#FFA000"/></g><g><ellipse cx="136.6" cy="305.9" fill="#FFC107" rx="69" ry="23"/><path d="M136.6,351.9c-32.2,0-58.7-6.9-66.7-17.3c-1.2,2.3-2.3,3.5-2.3,5.8c0,12.7,31.1,23,69,23s69-10.4,69-23   c0-2.3-1.2-3.5-2.3-5.8C195.3,345,168.8,351.9,136.6,351.9z" fill="#FFC107"/><path d="M136.6,386.4c-32.2,0-58.7-6.9-66.7-17.3c-1.2,2.3-2.3,3.5-2.3,5.8c0,12.7,31.1,23,69,23s69-10.4,69-23   c0-2.3-1.2-3.5-2.3-5.8C195.3,379.5,168.8,386.4,136.6,386.4z" fill="#FFC107"/><path d="M136.6,420.9c-32.2,0-58.7-6.9-66.7-17.3c-1.2,2.3-2.3,3.5-2.3,5.8c0,12.7,31.1,23,69,23s69-10.4,69-23   c0-2.3-1.2-3.5-2.3-5.8C195.3,414,168.8,420.9,136.6,420.9z" fill="#FFC107"/><path d="M136.6,455.5c-32.2,0-58.7-6.9-66.7-17.3c-1.2,2.3-2.3,3.5-2.3,5.8c0,12.7,31.1,23,69,23s69-10.4,69-23   c0-2.3-1.2-3.5-2.3-5.8C195.3,448.5,168.8,455.5,136.6,455.5z" fill="#FFC107"/><path d="M136.6,490c-32.2,0-58.7-6.9-66.7-17.3c-1.2,2.3-2.3,3.5-2.3,5.8c0,12.7,31.1,23,69,23s69-10.4,69-23   c0-2.3-1.2-3.5-2.3-5.8C195.3,483.1,168.8,490,136.6,490z" fill="#FFC107"/><path d="M136.6,524.5c-32.2,0-58.7-6.9-66.7-17.3c-1.2,2.3-2.3,3.5-2.3,5.8c0,12.7,31.1,23,69,23s69-10.4,69-23   c0-2.3-1.2-3.5-2.3-5.8C195.3,517.6,168.8,524.5,136.6,524.5z" fill="#FFC107"/><path d="M136.6,559c-32.2,0-58.7-6.9-66.7-17.3c-1.2,2.3-2.3,3.5-2.3,5.8c0,12.7,31.1,23,69,23s69-10.4,69-23   c0-2.3-1.2-3.5-2.3-5.8C195.3,552.1,168.8,559,136.6,559z" fill="#FFC107"/><path d="M136.6,593.5c-32.2,0-58.7-6.9-66.7-17.3c-1.2,2.3-2.3,3.5-2.3,5.8c0,12.7,31.1,23,69,23s69-10.4,69-23   c0-2.3-1.2-3.5-2.3-5.8C195.3,586.6,168.8,593.5,136.6,593.5z" fill="#FFC107"/></g><g><path d="M297.6,467c-38,0-69-10.4-69-23c0,4.6,0,18.4,0,23c0,12.7,31.1,23,69,23s69-10.4,69-23c0-4.6,0-18.4,0-23   C366.7,456.6,335.6,467,297.6,467z" fill="#FFA000"/><path d="M297.6,432.4c-38,0-69-10.4-69-23c0,4.6,0,18.4,0,23c0,12.7,31.1,23,69,23s69-10.4,69-23c0-4.6,0-18.4,0-23   C366.7,422.1,335.6,432.4,297.6,432.4z" fill="#FFA000"/><path d="M297.6,501.5c-38,0-69-10.4-69-23c0,4.6,0,18.4,0,23c0,12.7,31.1,23,69,23s69-10.4,69-23c0-4.6,0-18.4,0-23   C366.7,491.1,335.6,501.5,297.6,501.5z" fill="#FFA000"/><path d="M297.6,536c-38,0-69-10.4-69-23c0,4.6,0,18.4,0,23c0,12.7,31.1,23,69,23s69-10.4,69-23c0-4.6,0-18.4,0-23   C366.7,525.6,335.6,536,297.6,536z" fill="#FFA000"/><path d="M297.6,570.5c-38,0-69-10.4-69-23c0,4.6,0,18.4,0,23c0,12.7,31.1,23,69,23s69-10.4,69-23c0-4.6,0-18.4,0-23   C366.7,560.1,335.6,570.5,297.6,570.5z" fill="#FFA000"/><path d="M297.6,605c-38,0-69-10.4-69-23c0,4.6,0,18.4,0,23c0,12.7,31.1,23,69,23s69-10.4,69-23c0-4.6,0-18.4,0-23   C366.7,594.6,335.6,605,297.6,605z" fill="#FFA000"/></g><g><ellipse cx="297.6" cy="409.4" fill="#FFC107" rx="69" ry="23"/><path d="M297.6,455.5c-32.2,0-58.7-6.9-66.7-17.3c-1.2,2.3-2.3,3.5-2.3,5.8c0,12.7,31.1,23,69,23s69-10.4,69-23   c0-2.3-1.2-3.5-2.3-5.8C356.3,448.5,329.8,455.5,297.6,455.5z" fill="#FFC107"/><path d="M297.6,490c-32.2,0-58.7-6.9-66.7-17.3c-1.2,2.3-2.3,3.5-2.3,5.8c0,12.7,31.1,23,69,23s69-10.4,69-23   c0-2.3-1.2-3.5-2.3-5.8C356.3,483.1,329.8,490,297.6,490z" fill="#FFC107"/><path d="M297.6,524.5c-32.2,0-58.7-6.9-66.7-17.3c-1.2,2.3-2.3,3.5-2.3,5.8c0,12.7,31.1,23,69,23s69-10.4,69-23   c0-2.3-1.2-3.5-2.3-5.8C356.3,517.6,329.8,524.5,297.6,524.5z" fill="#FFC107"/><path d="M297.6,559c-32.2,0-58.7-6.9-66.7-17.3c-1.2,2.3-2.3,3.5-2.3,5.8c0,12.7,31.1,23,69,23s69-10.4,69-23   c0-2.3-1.2-3.5-2.3-5.8C356.3,552.1,329.8,559,297.6,559z" fill="#FFC107"/><path d="M297.6,593.5c-32.2,0-58.7-6.9-66.7-17.3c-1.2,2.3-2.3,3.5-2.3,5.8c0,12.7,31.1,23,69,23s69-10.4,69-23   c0-2.3-1.2-3.5-2.3-5.8C356.3,586.6,329.8,593.5,297.6,593.5z" fill="#FFC107"/></g></svg>