<?xml version="1.0" ?><svg enable-background="new 45.6 168.9 504 504" id="Layer_1" version="1.1" viewBox="45.6 168.9 504 504" xml:space="preserve" xmlns="http://www.w3.org/2000/svg" xmlns:xlink="http://www.w3.org/1999/xlink"><polygon fill="#90CAF9" points="386.3,608.7 84.3,608.7 84.3,198.9 289.2,198.9 386.3,296 "/><polygon fill="#E1F5FE" points="370.1,306.8 278.5,306.8 278.5,215.1 "/><rect fill="#616161" height="129.4" transform="matrix(-0.7071 0.7071 -0.7071 -0.7071 1205.0389 693.1687)" width="30.2" x="443.9" y="531.5"/><circle cx="332.4" cy="468.5" fill="#616161" r="118.6"/><circle cx="332.4" cy="468.5" fill="#90CAF9" r="97.1"/><rect fill="#37474F" height="93.8" transform="matrix(-0.7071 0.7071 -0.7071 -0.7071 1235.3552 705.0428)" width="30.2" x="456.6" y="561.5"/><g><path d="M354,490.1H249.3c4.3,17.3,14,32.4,27,43.1H354V490.1z" fill="#1976D2"/><path d="M249.3,447H354v-43.1h-78.7C262.3,414.6,253.6,429.7,249.3,447z" fill="#1976D2"/><path d="M247.2,371.5H149V393h78.7C233.2,385.5,239.6,377.9,247.2,371.5z" fill="#1976D2"/><path d="M214.8,414.6H149v21.6h58.2C209.4,428.6,211.6,421.1,214.8,414.6z" fill="#1976D2"/><path d="M203,468.5c0-3.2,0-7.5,1.1-10.8h-55v21.6h55C203,476.1,203,471.8,203,468.5z" fill="#1976D2"/><path d="M207.3,500.9H149v21.6h65.8C211.6,516,209.4,508.4,207.3,500.9z" fill="#1976D2"/></g></svg>