<?xml version="1.0" ?><svg enable-background="new 45.6 168.9 504 504" id="Layer_1" version="1.1" viewBox="45.6 168.9 504 504" xml:space="preserve" xmlns="http://www.w3.org/2000/svg" xmlns:xlink="http://www.w3.org/1999/xlink"><path d="M462.1,617.8h-325c-22.3,0-40.6-18.3-40.6-40.6V364.9c0-13.2,6.1-25.4,17.3-33.5l185.8-130l185.8,130  c11.2,7.1,17.3,20.3,17.3,33.5v212.2C502.7,599.5,484.5,617.8,462.1,617.8z" fill="#78909C"/><rect fill="#FFFFFF" height="223.4" width="243.7" x="177.8" y="313.1"/><polygon fill="#9C27B0" points="299.6,339.5 238.7,418.7 360.6,418.7 "/><path d="M462.1,617.8h-325c-22.3,0-40.6-18.3-40.6-40.6V374l203.1,132l203.1-132v203.1  C502.7,599.5,484.5,617.8,462.1,617.8z" fill="#CFD8DC"/><polygon fill="#9C27B0" points="299.6,485.8 320,472.6 320,404.5 279.3,404.5 279.3,472.6 "/></svg>