<?xml version="1.0" ?><svg enable-background="new 45.6 168.9 504 504" id="Layer_1" version="1.1" viewBox="45.6 168.9 504 504" xml:space="preserve" xmlns="http://www.w3.org/2000/svg" xmlns:xlink="http://www.w3.org/1999/xlink"><rect fill="#FBE9E7" height="443.4" width="332.5" x="131.4" y="199.2"/><g><polygon fill="#F4511E" points="364.2,565 395.2,565 339.8,509.6 308.7,540.7 364.2,596.1  "/><polygon fill="#F4511E" points="231.1,565 200.1,565 255.5,509.6 286.6,540.7 231.1,596.1  "/></g><rect fill="#FF8A65" height="44.3" width="199.5" x="197.9" y="299"/><rect fill="#FF8A65" height="22.2" width="199.5" x="197.9" y="376.6"/><path d="M297.6,443.1c-31,0-55.4,24.4-55.4,55.4c0,31,24.4,55.4,55.4,55.4s55.4-24.4,55.4-55.4  C353.1,467.5,328.7,443.1,297.6,443.1z M297.6,531.8c-18.8,0-33.3-14.4-33.3-33.3c0-18.8,14.4-33.3,33.3-33.3s33.3,14.4,33.3,33.3  C330.9,517.4,316.5,531.8,297.6,531.8z" fill="#FF8A65"/><path d="M120.3,188.2v465.6H475V188.2H120.3z M452.8,598.3c-18.8,0-33.3,14.4-33.3,33.3H175.7  c0-18.8-14.4-33.3-33.3-33.3V243.6c18.8,0,33.3-14.4,33.3-33.3h243.9c0,18.8,14.4,33.3,33.3,33.3V598.3z" fill="#FF8A65"/></svg>