<?xml version="1.0" ?><svg enable-background="new 0 0 595.3 841.9" id="Layer_1" version="1.1" viewBox="0 0 595.3 841.9" xml:space="preserve" xmlns="http://www.w3.org/2000/svg" xmlns:xlink="http://www.w3.org/1999/xlink"><g><path d="M477.5,676.4l-49.6-49.6l26-26l49.6,49.6c7.4,7.4,7.4,18.6,0,26l0,0C497.3,682.6,484.9,682.6,477.5,676.4z" fill="#37474F"/><path d="M117.8,676.4l49.6-49.6l-26-26l-49.6,49.6c-7.4,7.4-7.4,18.6,0,26l0,0C98,682.6,110.4,682.6,117.8,676.4z" fill="#37474F"/></g><circle cx="297.6" cy="420.9" fill="#C62828" r="248"/><circle cx="297.6" cy="420.9" fill="#EEEEEE" r="198.4"/><rect fill="#E53935" height="161.2" transform="matrix(0.7071 0.7071 -0.7071 0.7071 408.499 -30.1937)" width="9.9" x="235.7" y="397.4"/><rect height="161.2" width="24.8" x="285.2" y="259.7"/><rect height="114.1" transform="matrix(0.7071 -0.7071 0.7071 0.7071 -226.9698 373.6705)" width="28.5" x="323.3" y="403.8"/><circle cx="297.6" cy="420.9" r="24.8"/><circle cx="297.6" cy="420.9" fill="#C62828" r="12.4"/><rect fill="#37474F" height="37.2" width="49.6" x="272.8" y="135.7"/><g><path d="M550.6,324.2c31-43.4,26-104.2-12.4-142.6c-38.4-38.4-99.2-43.4-142.6-12.4L550.6,324.2z" fill="#37474F"/><path d="M44.6,324.2c-31-43.4-26-104.2,12.4-142.6s99.2-43.4,142.6-12.4L44.6,324.2z" fill="#37474F"/></g></svg>