<?xml version="1.0" ?><svg enable-background="new 45.6 168.9 504 504" id="Layer_1" version="1.1" viewBox="45.6 168.9 504 504" xml:space="preserve" xmlns="http://www.w3.org/2000/svg" xmlns:xlink="http://www.w3.org/1999/xlink"><g><polygon fill="#F44336" points="361.1,309.6 297.6,373.1 214,289.4 185.7,317.6 297.6,429.5 389.4,337.8  "/><polygon fill="#F44336" points="418.6,371 327.9,280.3 418.6,280.3  "/></g><path d="M504.3,490l-24.2-24.2c-85.7-83.7-291.3-71.6-364.9,0L91,490c-7.1,7.1-7.1,17.1,0,24.2l48.4,47.4  c7.1,7.1,17.1,7.1,24.2,0l53.4-51.4l-4-56.4c17.1-17.1,152.2-17.1,169.3,0l-3,58.5l51.4,49.4c7.1,7.1,17.1,7.1,24.2,0l48.4-47.4  C511.3,507.1,511.3,496,504.3,490z" fill="#009688"/></svg>