<?xml version="1.0" ?><svg enable-background="new 45.6 168.9 504 504" id="Layer_1" version="1.1" viewBox="45.6 168.9 504 504" xml:space="preserve" xmlns="http://www.w3.org/2000/svg" xmlns:xlink="http://www.w3.org/1999/xlink"><circle cx="391.3" cy="420" fill="#B2EBF2" r="105.3"/><path d="M391.3,279.6c-77.2,0-140.4,63.2-140.4,140.4S314,560.5,391.3,560.5S531.7,497.3,531.7,420  S468.5,279.6,391.3,279.6z M391.3,513.6c-51.5,0-93.6-42.1-93.6-93.6s42.1-93.6,93.6-93.6s93.6,42.1,93.6,93.6  S442.7,513.6,391.3,513.6z" fill="#4DD0E1"/><g><polygon fill="#3F51B5" points="314,396.6 248.5,198.9 175.9,463.3 150.2,396.6 63.6,396.6 63.6,443.4 117.4,443.4 185.3,610.8    253.2,360.4 281.3,443.4 367.9,443.4 367.9,396.6  "/><circle cx="391.3" cy="420" fill="#3F51B5" r="46.8"/></g></svg>