<?xml version="1.0" ?><svg enable-background="new 45.6 168.9 504 504" id="Layer_1" version="1.1" viewBox="45.6 168.9 504 504" xml:space="preserve" xmlns="http://www.w3.org/2000/svg" xmlns:xlink="http://www.w3.org/1999/xlink"><path d="M455.5,609.8H139.8c-21.7,0-39.5-17.8-39.5-39.5V364.1c0-12.8,5.9-24.7,16.8-32.6l180.5-126.3l180.5,126.3  c10.9,6.9,16.8,19.7,16.8,32.6v206.2C494.9,592,477.2,609.8,455.5,609.8z" fill="#78909C"/><rect fill="#AED581" height="305.8" width="197.3" x="199" y="215.2"/><g><path d="M189.1,205.3v325.5h217V205.3H189.1z M386.4,511.1H208.9V225h177.6V511.1z" fill="#558B2F"/><path d="M396.3,234.9c0,16.8-3,29.6-19.7,29.6c-16.8,0-29.6-12.8-29.6-29.6s12.8-19.7,29.6-19.7   C393.3,215.2,396.3,218.1,396.3,234.9z" fill="#558B2F"/><path d="M218.7,215.2c16.8,0,29.6,3,29.6,19.7s-12.8,29.6-29.6,29.6S199,251.7,199,234.9S201.9,215.2,218.7,215.2z" fill="#558B2F"/><circle cx="297.6" cy="284.2" fill="#558B2F" r="19.7"/><circle cx="297.6" cy="402.6" fill="#558B2F" r="59.2"/></g><path d="M455.5,609.8H139.8c-21.7,0-39.5-17.8-39.5-39.5V373l197.3,128.2L494.9,373v197.3  C494.9,592,477.2,609.8,455.5,609.8z" fill="#CFD8DC"/></svg>