<?xml version="1.0" ?><svg enable-background="new 45.6 168.9 504 504" id="Layer_1" version="1.1" viewBox="45.6 168.9 504 504" xml:space="preserve" xmlns="http://www.w3.org/2000/svg" xmlns:xlink="http://www.w3.org/1999/xlink"><path d="M102.9,581.2V335.2h389.4v245.9c0,22.5-18.4,41-41,41H143.9C121.4,622.2,102.9,603.7,102.9,581.2z" fill="#CFD8DC"/><path d="M492.3,294.2v61.5H102.9v-61.5c0-22.5,18.4-41,41-41h307.4C473.9,253.3,492.3,271.7,492.3,294.2z" fill="#F44336"/><g><circle cx="389.9" cy="294.2" fill="#B71C1C" r="30.7"/><circle cx="205.4" cy="294.2" fill="#B71C1C" r="30.7"/></g><g><path d="M389.9,222.5c-11.3,0-20.5,9.2-20.5,20.5v51.2c0,11.3,9.2,20.5,20.5,20.5c11.3,0,20.5-9.2,20.5-20.5V243   C410.4,231.7,401.1,222.5,389.9,222.5z" fill="#B0BEC5"/><path d="M205.4,222.5c-11.3,0-20.5,9.2-20.5,20.5v51.2c0,11.3,9.2,20.5,20.5,20.5c11.3,0,20.5-9.2,20.5-20.5V243   C225.9,231.7,216.7,222.5,205.4,222.5z" fill="#B0BEC5"/></g><g><rect fill="#90A4AE" height="41" width="41" x="184.9" y="396.7"/><rect fill="#90A4AE" height="41" width="41" x="246.4" y="396.7"/><rect fill="#90A4AE" height="41" width="41" x="307.9" y="396.7"/><rect fill="#90A4AE" height="41" width="41" x="369.4" y="396.7"/><rect fill="#90A4AE" height="41" width="41" x="184.9" y="458.2"/><rect fill="#90A4AE" height="41" width="41" x="246.4" y="458.2"/><rect fill="#90A4AE" height="41" width="41" x="307.9" y="458.2"/><rect fill="#90A4AE" height="41" width="41" x="369.4" y="458.2"/><rect fill="#90A4AE" height="41" width="41" x="184.9" y="519.7"/><rect fill="#90A4AE" height="41" width="41" x="246.4" y="519.7"/><rect fill="#90A4AE" height="41" width="41" x="307.9" y="519.7"/><rect fill="#90A4AE" height="41" width="41" x="369.4" y="519.7"/></g></svg>