<svg xmlns="http://www.w3.org/2000/svg" version="1.1" width="255" height="120"><defs></defs>
		<path fill="none" d="M 85.00000000000001 30.717967697244887 C 109.75208614068028 16.427344100918347 140.24791385931977 16.42734410091836 165 30.717967697244887" stroke="#FAD60A" stroke-width="10px" stroke-linecap="butt"></path>

		<path fill="none" d="M 165 30.717967697244916 C 189.75208614068026 45.00859129357145 205 71.4187528073469 205 99.99999999999999" stroke="red" stroke-width="10px" stroke-linecap="butt"></path>

		<path fill="none" d="M 45 99.99999999999999 C 44.999999999999986 71.41875280734692 60.24791385931975 45.00859129357144 84.99999999999999 30.717967697244916" stroke="#31a354" stroke-width="18px" stroke-linecap="round"></path>

		<circle cx="125" cy="100" r="5" transform="rotate(30.036490127433755 125 100)" fill="#F0F0F0"></circle>

		<path fill="#585858" d="M 135 100 A 10 10 0 1 1 134.999999999995 99.99999 L 131.9999999999965 99.999993 A 7 7 0 1 0 132 100 Z" transform="rotate(30.036490127433755 125 100)"></path>

		<rect fill="#585858" x="42" y="100" width="74" height="2" stroke-width="0.000001" transform="rotate(30.036490127433755 125 100)"></rect>

		<rect fill="#585858" x="135" y="97" width="6" height="6" stroke-width="0.000001" transform="rotate(30.036490127433755 125 100)"></rect>
	</svg>